HIERARCHY
ROOT Hips
{
	OFFSET 0.000000 0.000000 0.000000 
	CHANNELS 6 Xposition Yposition Zposition Yrotation Zrotation Xrotation 
	JOINT Lumbar
	{
		OFFSET 0.000000 0.000000 0.000000 
		CHANNELS 3 Zrotation Xrotation Yrotation
		JOINT Neck
		{
			OFFSET 0.000000 0.445665 0.000000 
			CHANNELS 3 Zrotation Xrotation Yrotation
			End Site
			{
				OFFSET 0.000000 0.227535 0.000000 
			}
		}
		JOINT RightShoulder
		{
			OFFSET 0.019635 0.377685 0.194865 
			CHANNELS 3 Zrotation Xrotation Yrotation
			JOINT RightElbow
			{
				OFFSET 0.000000 -0.243375 0.000000 
				CHANNELS 2 Zrotation Yrotation
				JOINT RightWrist
				{
					OFFSET 0.000000 -0.264825 0.000000 
					CHANNELS 2 Zrotation Xrotation
					End Site
					{
						OFFSET 0.006600 -0.176220 0.000990 
					}
				}
			}
		}
		JOINT LeftShoulder
		{
			OFFSET 0.019635 0.377685 -0.194865 
			CHANNELS 3 Zrotation Xrotation Yrotation
			JOINT LeftElbow
			{
				OFFSET 0.000000 -0.243375 0.000000 
				CHANNELS 2 Zrotation Yrotation
				JOINT LeftWrist
				{
					OFFSET 0.000000 -0.264825 0.000000 
					CHANNELS 2 Zrotation Xrotation
					End Site
					{
						OFFSET 0.006600 -0.176220 -0.000990 
					}
				}
			}
		}
	}
	JOINT RightHip
	{
		OFFSET 0.052140 -0.069960 0.075570 
		CHANNELS 3 Zrotation Xrotation Yrotation
		JOINT RightKnee
		{
			OFFSET 0.000000 -0.402270 0.000000 
			CHANNELS 1 Zrotation
			JOINT RightAnkle
			{
				OFFSET 0.000000 -0.404085 0.000000 
				CHANNELS 3 Zrotation Xrotation Yrotation
				End Site
				{
					OFFSET 0.204105 -0.089430 0.008415 
				}
			}
		}
	}
	JOINT LeftHip
	{
		OFFSET 0.052140 -0.069960 -0.075570 
		CHANNELS 3 Zrotation Xrotation Yrotation
		JOINT LeftKnee
		{
			OFFSET 0.000000 -0.402270 0.000000 
			CHANNELS 1 Zrotation
			JOINT LeftAnkle
			{
				OFFSET 0.000000 -0.404085 0.000000 
				CHANNELS 3 Zrotation Xrotation Yrotation
				End Site
				{
					OFFSET 0.204105 -0.089430 -0.008415 
				}
			}
		}
	}
}
MOTION
Frames: 28
Frame Time: 0.02
-0.44735 0.94985 -0.34412 186.31896 0 -1.01645 7.94148 10.06059 2.29064 -53.08791 -5.94155 -8.00146 51.48016 -7.70828 -6.40971 10.2729 80.15432 -2.4378 -4.51591 118.52493 68.12915 -51.95671 37.06462 -42.99385 -24.59407 -2.76166 -0.52559 8.67872 -7.40648 -9.59161 -7.92326 -3.16392 -11.48032 6.67575 5.82551 2.54151 -14.80043 -7.39741 2.39808 1.34327
-0.44746 0.94945 -0.34644 186.38616 0 -1.07138 7.91898 9.8822 2.19941 -53.12123 -5.48271 -7.0842 51.79807 -8.47205 -5.82302 10.5578 80.20992 -2.49348 -4.67861 114.39294 68.27102 -51.24146 37.97512 -42.4187 -24.65206 -2.87592 -0.53802 9.00045 -5.73181 -9.53892 -8.02961 -2.87601 -13.17635 6.42251 6.01675 2.71813 -14.27039 -7.46454 2.36753 1.12903
-0.4477 0.9491 -0.34872 186.39154 0 -1.11629 7.91698 9.67441 2.09526 -53.04592 -5.05024 -6.22726 51.93824 -9.11628 -5.14368 10.81904 80.27637 -2.55118 -4.7765 110.05789 67.95627 -50.25294 38.93222 -42.07998 -24.62278 -2.96549 -0.55486 9.34906 -3.5381 -9.48457 -8.17564 -2.50199 -15.33518 6.12176 6.22946 2.77414 -13.69125 -7.52744 2.32373 0.79387
-0.44788 0.94874 -0.351 186.42385 0 -1.16522 7.90456 9.48139 1.99942 -53.00927 -4.61317 -5.36472 52.14386 -9.78996 -4.50276 11.0846 80.33726 -2.60432 -4.90208 105.84358 67.83419 -49.38794 39.92023 -41.70577 -24.6098 -3.05547 -0.56878 9.67861 -1.64434 -9.43285 -8.29986 -2.17377 -17.21978 5.84661 6.4295 2.88877 -13.1418 -7.59293 2.28703 0.5207
-0.44809 0.94835 -0.35335 186.46006 0 -1.21741 7.89649 9.28186 1.89214 -53.01018 -4.14123 -4.40408 52.40702 -10.57431 -3.8726 11.38 80.39928 -2.67301 -5.03771 101.4735 67.77213 -48.51376 40.68644 -41.02287 -24.68773 -3.19316 -0.58532 10.03873 0.52968 -9.37596 -8.43929 -1.81536 -19.38262 5.5523 6.64411 2.98042 -12.55805 -7.65456 2.24465 0.21186
-0.44827 0.94801 -0.35555 186.47251 0 -1.26001 7.88415 9.08916 1.80593 -52.91043 -3.7503 -3.66505 52.51096 -11.09672 -3.20001 11.60606 80.46199 -2.70952 -5.13551 97.40066 67.47791 -47.60834 41.92824 -41.05342 -24.56145 -3.22206 -0.59813 10.34042 2.23473 -9.32788 -8.55693 -1.50193 -21.06699 5.28798 6.83273 3.09331 -12.03684 -7.72309 2.21134 -0.04873
-0.44835 0.94781 -0.35738 186.45079 0 -1.27896 7.85744 8.92224 1.78242 -52.55381 -3.56807 -3.5159 52.21741 -10.9353 -2.43122 11.65279 80.52558 -2.65921 -5.15069 94.10875 66.64991 -46.55963 44.44916 -42.84235 -23.85647 -2.99077 -0.59689 10.48066 2.57935 -9.31107 -8.60266 -1.3114 -21.38853 5.11192 6.94249 3.3023 -11.68156 -7.81841 2.20698 -0.15108
-0.4484 0.94765 -0.35907 186.40439 0 -1.28837 7.82536 8.76337 1.78041 -52.10165 -3.46853 -3.59014 51.7709 -10.51166 -1.62403 11.62903 80.58945 -2.57608 -5.1286 91.14387 65.60477 -45.51115 47.45066 -45.36778 -22.95634 -2.64485 -0.59234 10.55994 2.4243 -9.30174 -8.62561 -1.17279 -21.20094 4.96903 7.0253 3.53658 -11.39467 -7.9198 2.2123 -0.19897
-0.44844 0.94747 -0.36082 186.35924 0 -1.30178 7.79421 8.60109 1.76797 -51.69793 -3.33705 -3.56721 51.39643 -10.20089 -0.836 11.63312 80.6523 -2.50618 -5.11932 88.09151 64.66277 -44.54514 50.24789 -47.65651 -22.1699 -2.32887 -0.59121 10.66259 2.45406 -9.28429 -8.66035 -1.02571 -21.19661 4.81529 7.12133 3.75497 -11.08895 -8.01431 2.21285 -0.26814
-0.44855 0.94728 -0.36259 186.35484 0 -1.31635 7.77011 8.43666 1.75817 -51.26924 -3.18232 -3.52653 51.00541 -9.91326 -0.03687 11.65425 80.7191 -2.44303 -5.12526 84.77227 63.68763 -43.225 52.98984 -49.54291 -21.27482 -2.10459 -0.58223 10.78399 2.6709 -9.28642 -8.6902 -0.81378 -21.4033 4.64221 7.21416 3.98695 -10.72961 -8.12611 2.21426 -0.35667
-0.44852 0.94712 -0.36429 186.25941 0 -1.32629 7.72983 8.2791 1.74772 -50.87113 -3.09569 -3.57682 50.61434 -9.51589 0.74632 11.62323 80.77782 -2.35856 -5.09145 82.09079 62.73381 -42.64102 55.95702 -52.4353 -20.56079 -1.6636 -0.58863 10.85216 2.38466 -9.24996 -8.72454 -0.74784 -21.05395 4.51766 7.30682 4.19902 -10.49903 -8.2033 2.21662 -0.38986
-0.44811 0.94703 -0.36584 185.92821 0 -1.3264 7.64582 8.13802 1.73397 -50.58352 -3.17412 -3.80944 50.26615 -8.88662 1.48091 11.4672 80.81191 -2.21847 -4.95746 81.08099 61.91117 -44.134 59.45706 -57.95504 -20.39369 -0.64187 -0.63953 10.78234 0.72494 -9.10169 -8.77489 -1.09479 -19.20095 4.52144 7.40652 4.34439 -10.60601 -8.18428 2.21693 -0.28662
-0.44756 0.94698 -0.36732 185.5046 0 -1.32217 7.54574 8.00395 1.71824 -50.33021 -3.31878 -4.12841 49.92303 -8.15523 2.1963 11.26092 80.83804 -2.05893 -4.78505 80.70478 61.11555 -46.36018 63.16092 -64.45307 -20.41491 0.59203 -0.70576 10.66202 -1.40675 -8.91502 -8.83076 -1.58319 -16.82066 4.57258 7.50669 4.47067 -10.8406 -8.13007 2.21833 -0.12822
-0.44707 0.94691 -0.36883 185.11758 0 -1.31947 7.45307 7.867 1.70094 -50.05984 -3.43464 -4.4167 49.57483 -7.46658 2.91736 11.07655 80.86943 -1.91141 -4.6301 80.04557 60.29813 -48.22402 66.75339 -70.48497 -20.35238 1.72176 -0.76418 10.56853 -3.25486 -8.7481 -8.88512 -1.99246 -14.7406 4.60082 7.60589 4.6098 -11.01795 -8.09149 2.22085 0.00738
-0.44658 0.94683 -0.37037 184.75327 0 -1.31803 7.35951 7.72848 1.69457 -49.79165 -3.54733 -4.67608 49.23295 -6.78418 3.6545 10.89345 80.89458 -1.74933 -4.47343 79.3761 59.51574 -50.21379 70.44472 -76.64159 -20.28018 2.88783 -0.82612 10.45651 -5.41097 -8.57149 -8.93431 -2.46589 -12.38828 4.63648 7.70727 4.73159 -11.19485 -8.05474 2.217 0.13465
-0.44607 0.94677 -0.37182 184.31906 0 -1.31337 7.26436 7.59547 1.665 -49.5291 -3.68199 -5.01401 48.88109 -6.06795 4.35087 10.69692 80.93 -1.61341 -4.31219 78.87509 58.66631 -52.11152 73.96874 -82.75118 -20.26919 4.02757 -0.88431 10.37195 -7.03222 -8.40612 -8.99609 -2.83896 -10.48309 4.66693 7.80469 4.88532 -11.40163 -8.00561 2.22639 0.29239
-0.44556 0.94675 -0.37307 183.723 0 -1.29839 7.16634 7.47025 1.56886 -49.26772 -3.85459 -5.54054 48.50144 -5.2849 4.95746 10.47412 81.00291 -1.55459 -4.14372 78.6759 57.65458 -53.60943 77.00734 -88.54999 -20.42676 5.03435 -0.92946 10.37549 -7.04655 -8.27884 -9.08949 -2.89652 -9.9585 4.67626 7.8902 5.12584 -11.66362 -7.93194 2.27341 0.51477
-0.44505 0.94674 -0.37424 183.05838 0 -1.28086 7.06778 7.35142 1.44982 -49.01241 -4.04785 -6.14337 48.11204 -4.4725 5.51974 10.24018 81.08513 -1.52301 -3.97288 78.62418 56.56941 -54.98304 79.86239 -94.23707 -20.62588 6.00571 -0.97013 10.40891 -6.50396 -8.16466 -9.19587 -2.8482 -9.90398 4.67764 7.97202 5.40002 -11.95017 -7.8468 2.33345 0.7668
-0.44454 0.94673 -0.37544 182.41956 0 -1.26611 6.97104 7.23331 1.34322 -48.75885 -4.23549 -6.71486 47.72736 -3.67364 6.09068 10.01268 81.15829 -1.47897 -3.80597 78.50898 55.50061 -56.39158 82.7827 -99.95349 -20.78473 7.00147 -1.01219 10.42877 -6.22672 -8.04592 -9.29746 -2.85119 -9.62249 4.67936 8.05625 5.66288 -12.22264 -7.76622 2.38657 1.00894
-0.44401 0.94671 -0.37667 181.79982 0 -1.24419 6.86695 7.09994 1.22832 -48.4876 -4.40947 -7.27543 47.34201 -2.86959 6.71088 9.77759 81.25135 -1.43426 -3.62578 78.40171 54.50725 -57.9171 85.79031 -105.86061 -21.06512 7.98028 -1.05752 10.44597 -5.92528 -7.91971 -9.39422 -2.8476 -9.36825 4.69666 8.13737 5.90895 -12.51211 -7.68717 2.44387 1.23784
-0.44352 0.94671 -0.37781 181.12565 0 -1.23689 6.77844 7.00004 1.1249 -48.25394 -4.61607 -7.87572 46.95512 -2.07149 7.21641 9.5563 81.30552 -1.39808 -3.47302 78.30393 53.33545 -59.15938 88.56574 -111.24891 -21.06871 8.96985 -1.09476 10.47747 -5.52231 -7.81298 -9.50445 -2.82831 -9.18884 4.67888 8.22413 6.19741 -12.77008 -7.60266 2.49565 1.50069
-0.44313 0.94673 -0.37873 180.3149 0 -1.26855 6.73145 6.9888 1.06231 -48.12489 -4.90628 -8.5661 46.57132 -1.29186 7.43071 9.37645 81.24804 -1.37533 -3.39843 78.19937 51.71973 -59.65047 90.77595 -115.9589 -20.57329 10.11214 -1.11082 10.53242 -5.09226 -7.75431 -9.64515 -2.81253 -8.98795 4.56671 8.32696 6.60191 -12.93637 -7.50612 2.5282 1.84927
-0.44279 0.94676 -0.37957 179.45266 0 -1.31532 6.70057 7.01133 1.01161 -48.03289 -5.22852 -9.29339 46.18534 -0.52088 7.528 9.21107 81.15148 -1.36094 -3.35143 78.09581 49.92157 -59.85695 92.75093 -120.03052 -19.75288 11.24496 -1.11878 10.60229 -4.55852 -7.7155 -9.79941 -2.78078 -8.86647 4.41908 8.4356 7.04677 -13.06912 -7.40466 2.55492 2.23077
-0.44242 0.94679 -0.38043 178.61663 0 -1.35661 6.66343 7.01992 0.95292 -47.92219 -5.53671 -10.00411 45.79711 0.2503 7.67001 9.03885 81.07423 -1.34516 -3.29077 77.98606 48.18602 -60.18974 94.81347 -123.88638 -18.89033 12.30493 -1.13041 10.67168 -3.98855 -7.66934 -9.95 -2.74087 -8.78992 4.28721 8.54196 7.46832 -13.21582 -7.30541 2.58485 2.59754
-0.44205 0.94682 -0.38135 177.76677 0 -1.39227 6.62166 7.0231 0.90356 -47.81947 -5.84359 -10.71727 45.42229 1.03887 7.84823 8.86711 80.99096 -1.3203 -3.23462 77.90463 46.53174 -60.53167 96.95559 -129.78986 -18.80056 13.68585 -1.14211 10.71678 -3.73678 -7.61625 -10.0913 -2.75917 -8.4017 4.15697 8.64702 7.91146 -13.36928 -7.20566 2.61283 2.96479
-0.44171 0.94685 -0.38214 176.93377 0 -1.44289 6.59354 7.04509 0.83885 -47.70898 -6.16043 -11.43235 45.01907 1.78812 7.92127 8.69821 80.91057 -1.31579 -3.17579 77.76424 44.6682 -60.78827 98.87321 -131.38462 -17.06138 14.40107 -1.15159 10.81402 -2.82313 -7.5825 -10.25405 -2.6579 -8.65746 4.01452 8.75578 8.31947 -13.4999 -7.10616 2.64336 3.33799
-0.44149 0.94687 -0.38257 176.16568 0 -1.53454 6.59762 7.11433 0.72093 -47.56683 -6.49759 -12.14889 44.53875 2.43549 7.75462 8.53197 80.84986 -1.36694 -3.10172 77.44529 42.25246 -60.87999 100.27159 -120.30706 -10.51983 13.24102 -1.15879 11.06524 0.04775 -7.59429 -10.48065 -2.19503 -10.8244 3.85128 8.87697 8.6142 -13.57953 -7.00678 2.68183 3.72338
-0.44131 0.94689 -0.38288 175.41564 0 -1.64013 6.61518 7.20069 0.58884 -47.41587 -6.8433 -12.86417 44.02998 3.04215 7.48241 8.36859 80.79303 -1.43784 -3.02428 77.07023 39.63724 -60.89586 101.44367 -105.07999 -2.39023 11.41945 -1.16374 11.36568 3.54899 -7.62529 -10.72673 -1.61929 -13.60538 3.67628 9.00103 8.87307 -13.63658 -6.90822 2.72305 4.1128
